{
    "asset" : {
        "generator" : "Khronos glTF Blender I/O v1.3.48",
        "version" : "2.0"
    },
    "scene" : 0,
    "scenes" : [
        {
            "name" : "Scene",
            "nodes" : [
                0
            ]
        }
    ],
    "nodes" : [
        {
            "mesh" : 0,
            "name" : "node_damagedHelmet_-6514",
            "rotation" : [
                0.7071068286895752,
                0,
                0,
                0.7071068286895752
            ]
        }
    ],
    "materials" : [
        {
            "emissiveFactor" : [
                1,
                1,
                1
            ],
            "emissiveTexture" : {
                "index" : 0,
                "texCoord" : 0
            },
            "name" : "Material_MR.001",
            "normalTexture" : {
                "index" : 1,
                "texCoord" : 0
            },
            "occlusionTexture" : {
                "index" : 2,
                "texCoord" : 0
            },
            "pbrMetallicRoughness" : {
                "baseColorTexture" : {
                    "index" : 3,
                    "texCoord" : 0
                },
                "metallicRoughnessTexture" : {
                    "index" : 2,
                    "texCoord" : 0
                }
            }
        }
    ],
    "meshes" : [
        {
            "name" : "mesh_helmet_LP_13930damagedHelmet.001",
            "primitives" : [
                {
                    "attributes" : {
                        "POSITION" : 0,
                        "NORMAL" : 1,
                        "TEXCOORD_0" : 2
                    },
                    "indices" : 3,
                    "material" : 0
                }
            ]
        }
    ],
    "textures" : [
        {
            "source" : 0
        },
        {
            "source" : 1
        },
        {
            "source" : 2
        },
        {
            "source" : 3
        }
    ],
    "images" : [
        {
            "mimeType" : "image/jpeg",
            "name" : "emissive",
            "uri" : "emissive.jpg"
        },
        {
            "mimeType" : "image/jpeg",
            "name" : "normal",
            "uri" : "normal.jpg"
        },
        {
            "mimeType" : "image/png",
            "name" : "AO_metalRoughness",
            "uri" : "AO_metalRoughness.png"
        },
        {
            "mimeType" : "image/jpeg",
            "name" : "albedo",
            "uri" : "albedo.jpg"
        }
    ],
    "accessors" : [
        {
            "bufferView" : 0,
            "componentType" : 5126,
            "count" : 16445,
            "max" : [
                0.9424954056739807,
                0.9009949564933777,
                0.8128451108932495
            ],
            "min" : [
                -0.9474585652351379,
                -0.900973916053772,
                -1.18715500831604
            ],
            "type" : "VEC3"
        },
        {
            "bufferView" : 1,
            "componentType" : 5126,
            "count" : 16445,
            "type" : "VEC3"
        },
        {
            "bufferView" : 2,
            "componentType" : 5126,
            "count" : 16445,
            "type" : "VEC2"
        },
        {
            "bufferView" : 3,
            "componentType" : 5123,
            "count" : 46356,
            "type" : "SCALAR"
        }
    ],
    "bufferViews" : [
        {
            "buffer" : 0,
            "byteLength" : 197340,
            "byteOffset" : 0
        },
        {
            "buffer" : 0,
            "byteLength" : 197340,
            "byteOffset" : 197340
        },
        {
            "buffer" : 0,
            "byteLength" : 131560,
            "byteOffset" : 394680
        },
        {
            "buffer" : 0,
            "byteLength" : 92712,
            "byteOffset" : 526240
        }
    ],
    "buffers" : [
        {
            "byteLength" : 618952,
            "uri" : "DamagedHelmet.bin"
        }
    ]
}
